<?xml version="1.0" encoding="UTF-8"?>
<svg width="132px" height="48px" viewBox="0 0 132 48" version="1.1" xmlns="http://www.w3.org/2000/svg" xmlns:xlink="http://www.w3.org/1999/xlink">
    <!-- Generator: Sketch 56.3 (81716) - https://sketch.com -->
    <title>Combined Shape</title>
    <desc>Created with Sketch.</desc>
    <g id="Page-1" stroke="none" stroke-width="1" fill="none" fill-rule="evenodd">
        <g id="Tablet" transform="translate(-852.000000, -51.000000)" fill="#652767">
            <path d="M852,60.8750389 L984,51 L971.395579,99 L859.148861,94.4183451 L852,60.8750389 Z M876.528763,82.0209187 L879.491971,82.0209187 L879.491971,69.0209187 L876.528763,69.0209187 L876.528763,73.9398377 L873.455178,73.9398377 L873.455178,69.0209187 L870.491971,69.0209187 L870.491971,82.0209187 L873.455178,82.0209187 L873.455178,76.5833383 L876.528763,76.5833383 L876.528763,82.0209187 Z M890.491971,74.9867307 C890.491971,73.9354487 890.374914,72.9867307 890.1408,72.1234828 C889.906687,71.268782 889.572238,70.5337393 889.145817,69.9269016 C888.711034,69.320064 888.19264,68.8499786 887.573911,68.5166452 C886.955182,68.1833119 886.261202,68.0209187 885.491971,68.0209187 C884.714379,68.0209187 884.012038,68.1833119 883.393309,68.5166452 C882.77458,68.8499786 882.247824,69.320064 881.821402,69.9269016 C881.38662,70.5337393 881.060533,71.268782 880.83478,72.1234828 C880.600666,72.9867307 880.491971,73.9354487 880.491971,74.9867307 C880.491971,76.0380128 880.609028,76.9952777 880.843141,77.8670726 C881.077255,78.7388675 881.411703,79.4739102 881.838125,80.0892948 C882.272907,80.7046794 882.791302,81.1833119 883.410031,81.5166452 C884.02876,81.8499786 884.72274,82.0209187 885.491971,82.0209187 C886.261202,82.0209187 886.955182,81.8585256 887.573911,81.5166452 C888.19264,81.1747649 888.719396,80.7046794 889.145817,80.0892948 C889.5806,79.4739102 889.906687,78.7388675 890.1408,77.8670726 C890.374914,76.9952777 890.491971,76.0380128 890.491971,74.9867307 Z M887.481937,74.9867307 C887.481937,75.5593803 887.440131,76.0978418 887.356519,76.6021153 C887.272907,77.0978418 887.147489,77.5337393 886.980265,77.8927136 C886.821402,78.260235 886.612372,78.5422863 886.369897,78.7559615 C886.127422,78.9696367 885.83478,79.0722008 885.508693,79.0722008 C885.182606,79.0722008 884.889964,78.9696367 884.639128,78.7559615 C884.388292,78.5422863 884.187623,78.260235 884.020399,77.8927136 C883.853175,77.5337393 883.727757,77.1063888 883.652506,76.6021153 C883.577255,76.0978418 883.535449,75.5593803 883.535449,74.9867307 C883.535449,74.4055341 883.577255,73.8756196 883.652506,73.3798931 C883.736118,72.8927136 883.853175,72.4653632 884.020399,72.0978418 C884.179262,71.7303204 884.388292,71.4482692 884.639128,71.243141 C884.889964,71.0380128 885.182606,70.9354487 885.508693,70.9354487 C885.83478,70.9354487 886.127422,71.0380128 886.369897,71.243141 C886.612372,71.4482692 886.813041,71.7388675 886.980265,72.0978418 C887.147489,72.4568162 887.272907,72.8841666 887.356519,73.3798931 C887.440131,73.8756196 887.481937,74.4140811 887.481937,74.9867307 Z M891.491971,82.0209187 L897.491971,82.0209187 L897.491971,79.3021285 L894.262399,79.3021285 L894.262399,69.0209187 L891.491971,69.0209187 L891.491971,82.0209187 Z M907.491971,74.9867307 C907.491971,73.9354487 907.374914,72.9867307 907.1408,72.1234828 C906.906687,71.268782 906.572238,70.5337393 906.145817,69.9269016 C905.711034,69.320064 905.19264,68.8499786 904.573911,68.5166452 C903.955182,68.1833119 903.261202,68.0209187 902.491971,68.0209187 C901.714379,68.0209187 901.012038,68.1833119 900.393309,68.5166452 C899.77458,68.8499786 899.247824,69.320064 898.821402,69.9269016 C898.38662,70.5337393 898.060533,71.268782 897.83478,72.1234828 C897.600666,72.9867307 897.491971,73.9354487 897.491971,74.9867307 C897.491971,76.0380128 897.609028,76.9952777 897.843141,77.8670726 C898.077255,78.7388675 898.411703,79.4739102 898.838125,80.0892948 C899.272907,80.7046794 899.791302,81.1833119 900.410031,81.5166452 C901.02876,81.8499786 901.72274,82.0209187 902.491971,82.0209187 C903.261202,82.0209187 903.955182,81.8585256 904.573911,81.5166452 C905.19264,81.1747649 905.719396,80.7046794 906.145817,80.0892948 C906.5806,79.4739102 906.906687,78.7388675 907.1408,77.8670726 C907.374914,76.9952777 907.491971,76.0380128 907.491971,74.9867307 Z M904.481937,74.9867307 C904.481937,75.5593803 904.440131,76.0978418 904.356519,76.6021153 C904.272907,77.0978418 904.147489,77.5337393 903.980265,77.8927136 C903.821402,78.260235 903.612372,78.5422863 903.369897,78.7559615 C903.127422,78.9696367 902.83478,79.0722008 902.508693,79.0722008 C902.182606,79.0722008 901.889964,78.9696367 901.639128,78.7559615 C901.388292,78.5422863 901.187623,78.260235 901.020399,77.8927136 C900.853175,77.5337393 900.727757,77.1063888 900.652506,76.6021153 C900.577255,76.0978418 900.535449,75.5593803 900.535449,74.9867307 C900.535449,74.4055341 900.577255,73.8756196 900.652506,73.3798931 C900.736118,72.8927136 900.853175,72.4653632 901.020399,72.0978418 C901.179262,71.7303204 901.388292,71.4482692 901.639128,71.243141 C901.889964,71.0380128 902.182606,70.9354487 902.508693,70.9354487 C902.83478,70.9354487 903.127422,71.0380128 903.369897,71.243141 C903.612372,71.4482692 903.813041,71.7388675 903.980265,72.0978418 C904.147489,72.4568162 904.272907,72.8841666 904.356519,73.3798931 C904.440131,73.8756196 904.481937,74.4140811 904.481937,74.9867307 Z M915.950582,81.7203052 C916.550011,81.5141703 917.063807,81.2479126 917.491971,80.9301212 L917.491971,73.8270537 L913.432979,73.8270537 L913.432979,76.4466856 L914.863046,76.4466856 L914.863046,78.9374832 C914.606148,79.1264402 914.255054,79.2209187 913.8012,79.2209187 C913.3816,79.2209187 913.030506,79.1092623 912.730791,78.8859494 C912.43964,78.6626365 912.191305,78.362023 911.99435,77.9841089 C911.797394,77.6061948 911.651819,77.168158 911.566186,76.6614095 C911.480553,76.1546611 911.437737,75.6221457 911.437737,75.0552746 C911.437737,74.4884034 911.489116,73.9558881 911.583312,73.4491396 C911.677508,72.9423911 911.831647,72.5043543 912.028603,72.1264402 C912.225558,71.7485261 912.482456,71.4565016 912.782171,71.2331887 C913.090448,71.0184648 913.441543,70.9068083 913.861143,70.9068083 C914.640401,70.9068083 915.256957,71.2245997 915.71081,71.8515936 L917.346395,69.6442316 C916.995301,69.1804279 916.515758,68.7939249 915.907765,68.4847224 C915.299773,68.17552 914.546205,68.0209187 913.647061,68.0209187 C912.867803,68.0209187 912.165615,68.1841089 911.531933,68.5276672 C910.898251,68.8712255 910.358764,69.3522071 909.904911,69.970612 C909.451057,70.5890169 909.108527,71.3362562 908.860192,72.1951519 C908.611857,73.0540476 908.491971,74.0074218 908.491971,75.0466856 C908.491971,76.0859494 908.62042,77.0393236 908.860192,77.8896304 C909.108527,78.7485261 909.451057,79.4785875 909.913474,80.0884034 C910.367328,80.6982194 910.92394,81.170612 911.583312,81.5141703 C912.234121,81.8491396 912.987689,82.0209187 913.82689,82.0209187 C914.640401,82.0209187 915.351153,81.9178513 915.950582,81.7203052 Z M924.229692,82.0209187 L927.491971,82.0209187 L925.149142,76.2152559 C925.370163,76.1399664 925.600026,76.0228492 925.829888,75.8471736 C926.059751,75.6714979 926.271932,75.4539947 926.45759,75.1862984 C926.643248,74.9186021 926.793543,74.5923473 926.908474,74.2158994 C927.023405,73.8310861 927.085291,73.4044451 927.085291,72.9276111 C927.085291,71.6309574 926.713975,70.6521929 925.980183,69.9996832 C925.246391,69.3471736 924.21201,69.0209187 922.88588,69.0209187 L918.491971,69.0209187 L918.491971,82.0209187 L921.480183,82.0209187 L921.480183,76.8426691 L922.390792,76.8426691 L924.229692,82.0209187 Z M924.044034,73.1032868 C924.044034,73.6888724 923.876057,74.1155133 923.540104,74.3748441 C923.204152,74.6341749 922.823994,74.768023 922.381951,74.768023 L921.471342,74.768023 L921.471342,71.4803782 L922.443837,71.4803782 C922.629495,71.4803782 922.815154,71.5054747 923.000812,71.5473023 C923.18647,71.5974953 923.354446,71.6727849 923.513582,71.7982675 C923.672717,71.9153846 923.79649,72.0826948 923.893739,72.2918325 C923.990989,72.5009702 924.044034,72.777032 924.044034,73.1032868 Z M935.426644,82.0209187 L938.491971,82.0209187 L935.351267,69.0209187 L931.6578,69.0209187 L928.491971,82.0209187 L931.431669,82.0209187 L931.967683,79.6534799 L934.890631,79.6534799 L935.426644,82.0209187 Z M933.47522,71.8484606 L934.513746,77.3780616 L932.294316,77.3780616 L933.399844,71.8484606 L933.47522,71.8484606 Z M947.491971,73.1006615 C947.491971,72.3231695 947.36671,71.6794396 947.149591,71.1443914 C946.90742,70.6177033 946.598443,70.1996969 946.214309,69.8903721 C945.830175,69.5810474 945.395937,69.3553239 944.928297,69.2215618 C944.452305,69.0877998 943.993015,69.0209187 943.525374,69.0209187 L939.491971,69.0209187 L939.491971,82.0209187 L942.372973,82.0209187 L942.372973,77.2890859 L943.633933,77.2890859 C944.109925,77.2890859 944.577566,77.2054847 945.045207,77.0382821 C945.504497,76.8710795 945.922033,76.6202757 946.289466,76.2775104 C946.656898,75.9347451 946.949173,75.5000184 947.166292,74.9733303 C947.383411,74.4466422 947.491971,73.8196326 947.491971,73.1006615 Z M944.74458,73.1508223 C944.74458,73.719311 944.602618,74.1456776 944.318693,74.4466422 C944.034768,74.7476068 943.692388,74.8980892 943.291553,74.8980892 L942.356271,74.8980892 L942.356271,71.5038769 L943.291553,71.5038769 C943.692388,71.5038769 944.034768,71.6292789 944.318693,71.8884429 C944.602618,72.1392467 944.74458,72.5656133 944.74458,73.1508223 Z M954.528763,82.0209187 L957.491971,82.0209187 L957.491971,69.0209187 L954.528763,69.0209187 L954.528763,73.9398377 L951.455178,73.9398377 L951.455178,69.0209187 L948.491971,69.0209187 L948.491971,82.0209187 L951.455178,82.0209187 L951.455178,76.5833383 L954.528763,76.5833383 L954.528763,82.0209187 Z" id="Combined-Shape"></path>
        </g>
    </g>
</svg>